<svg width="57" height="57" viewBox="0 0 57 57" fill="none" xmlns="http://www.w3.org/2000/svg">
<path d="M28.5 53.5829C42.3296 53.5829 53.5818 42.3308 53.5818 28.5002C53.5818 14.6697 42.3296 3.41846 28.5 3.41846C14.6704 3.41846 3.41821 14.6697 3.41821 28.5002C3.41821 42.3308 14.6704 53.5829 28.5 53.5829ZM24.0691 27.1492H28.5H32.9309L28.5 36.9576L24.0691 27.1492ZM41.406 33.1716C41.406 39.1085 41.406 40.4845 41.406 40.4845C41.406 40.4845 28.7583 40.4845 28.801 40.4845L34.9526 27.1483C34.9526 27.1483 41.406 27.2355 41.406 33.1716ZM28.5 12.9526C32.0162 12.9526 34.8671 15.8035 34.8671 19.3197C34.8671 22.8359 32.0162 25.6868 28.5 25.6868C24.9838 25.6868 22.1329 22.8359 22.1329 19.3197C22.1329 15.8035 24.9838 12.9526 28.5 12.9526ZM15.5939 33.1716C15.5939 27.2347 22.0465 27.1492 22.0465 27.1492L28.1981 40.4854C28.2408 40.4854 15.5931 40.4854 15.5931 40.4854C15.5931 40.4854 15.5939 39.1085 15.5939 33.1716Z" fill="#3D52AA"/>
<path d="M28.5 54.4735C42.8212 54.4735 54.4724 42.8224 54.4724 28.5002C54.4724 14.179 42.8212 2.52783 28.5 2.52783C14.1787 2.52783 2.52759 14.179 2.52759 28.5002C2.52759 42.8224 14.1787 54.4735 28.5 54.4735ZM28.5 3.41846C42.3296 3.41846 53.5818 14.6706 53.5818 28.5002C53.5818 42.3308 42.3296 53.5829 28.5 53.5829C14.6704 53.5829 3.41821 42.3308 3.41821 28.5002C3.41821 14.6697 14.6704 3.41846 28.5 3.41846Z" fill="white"/>
<path d="M28.5 25.6868C32.0165 25.6868 34.8671 22.8362 34.8671 19.3197C34.8671 15.8033 32.0165 12.9526 28.5 12.9526C24.9836 12.9526 22.1329 15.8033 22.1329 19.3197C22.1329 22.8362 24.9836 25.6868 28.5 25.6868Z" fill="white"/>
<path d="M28.1378 26.4379C28.1378 26.4379 15 23.1248 15 35.4586C15 44.6104 15 46.9974 15 46.9974C15 46.9974 28.1823 46.9974 28.1378 46.9974V26.4379Z" fill="#E67E22"/>
<path d="M42 47C42 47 42 43.8395 42 34.6877C41.4788 23.1245 28.1319 26.4404 28.1319 26.4404V47C28.0864 46.9986 42 47 42 47Z" fill="#E67E22"/>
</svg>
